<svg xmlns="http://www.w3.org/2000/svg" xml:space="preserve" width="25mm" height="25mm" style="shape-rendering:geometricPrecision;text-rendering:geometricPrecision;image-rendering:optimizeQuality;fill-rule:evenodd;clip-rule:evenodd" viewBox="0 0 1.438 1.438"><defs><radialGradient id="id0" gradientUnits="userSpaceOnUse" cx=".53" cy=".569" r=".57" fx=".53" fy=".569"><stop offset="0" style="stop-color:white"/><stop offset=".302" style="stop-color:#f3f516"/><stop offset=".588" style="stop-color:#fcce00"/><stop offset="1" style="stop-color:#ff9e67"/></radialGradient><style>.fil6{fill:#000}.fil0{fill:gray}</style></defs><g id="Layer_x0020_1"><g id="_280012248"><path id="_280272104" class="fil0" d="M0 0h1.438v1.438H0z"/><path id="_280270400" style="fill:#fff" d="M.046.046h1.345L.817.618l-.771.773z"/><path id="_280270328" class="fil0" d="M1.4.038V1.4H.038z"/><path id="_280270256" style="fill:#c6c6c6" d="M.17.17h1.097v1.097H.17z"/><g><circle id="_281587272" cx=".719" cy=".719" r=".432" style="fill:none"/><circle id="_281587200" cx=".722" cy=".711" r=".418" style="fill:url(#id0)"/><path id="_281587128" d="M.72.26a.457.457 0 0 1 .457.459.457.457 0 0 1-.458.458A.457.457 0 0 1 .261.72.457.457 0 0 1 .719.261zm0 .053H.718A.405.405 0 0 0 .313.72a.405.405 0 0 0 .406.406.405.405 0 0 0 .406-.406.405.405 0 0 0-.406-.406z" style="fill:#000;fill-rule:nonzero"/><circle id="_281587056" class="fil6" cx=".556" cy=".559" r=".077"/><circle id="_281586984" class="fil6" cx=".882" cy=".559" r=".077"/><path id="_281586912" class="fil6" d="M.72 1.034a.147.147 0 1 1 0-.295.147.147 0 0 1 0 .295zm0-.053a.094.094 0 1 1 0-.189.094.094 0 0 1 0 .189z"/></g></g></g></svg>