<svg xmlns="http://www.w3.org/2000/svg" xml:space="preserve" width="25mm" height="25mm" style="shape-rendering:geometricPrecision;text-rendering:geometricPrecision;image-rendering:optimizeQuality;fill-rule:evenodd;clip-rule:evenodd" viewBox="0 0 1.224 1.224"><defs><radialGradient id="id0" gradientUnits="userSpaceOnUse" cx=".451" cy=".484" r=".485" fx=".451" fy=".484"><stop offset="0" style="stop-color:white"/><stop offset=".302" style="stop-color:#f3f516"/><stop offset=".588" style="stop-color:#fcce00"/><stop offset="1" style="stop-color:#ff9e67"/></radialGradient><style>.fil7{fill:#000}.fil0{fill:gray}</style></defs><g id="Layer_x0020_1"><g id="_280271384"><path id="_280271864" class="fil0" d="M0 0h1.224v1.224H0z"/><path id="_280270640" style="fill:#fff" d="M.039.039h1.145L.696.526l-.657.658z"/><path id="_280270568" class="fil0" d="M1.192.032v1.16H.032z"/><path id="_280270496" style="fill:#c6c6c6" d="M.145.145h.934v.934H.145z"/><g><circle id="_281587728" cx=".612" cy=".612" r=".368" style="fill:none"/><circle id="_281587656" cx=".615" cy=".605" r=".356" style="fill:url(#id0)"/><path id="_281587584" d="M.612.222a.389.389 0 0 1 .39.39.389.389 0 0 1-.39.39.389.389 0 0 1-.39-.39.389.389 0 0 1 .39-.39zm0 .045a.344.344 0 0 0-.345.345.344.344 0 0 0 .345.346.344.344 0 0 0 .346-.346.344.344 0 0 0-.346-.345z" style="fill:#000;fill-rule:nonzero"/><path id="_281587512" d="M.762.704a.045.045 0 0 1 .012.029C.774.775.704.81.615.81.528.81.457.775.457.733c0-.01.004-.02.012-.03.023.029.08.048.146.048.067 0 .123-.02.147-.047z" style="fill:#000"/><circle id="_281587440" class="fil7" cx=".49" cy=".526" r=".066"/><circle id="_281587368" class="fil7" cx=".723" cy=".526" r=".066"/></g></g></g></svg>