<svg xmlns="http://www.w3.org/2000/svg" xml:space="preserve" width="25mm" height="25mm" style="shape-rendering:geometricPrecision;text-rendering:geometricPrecision;image-rendering:optimizeQuality;fill-rule:evenodd;clip-rule:evenodd" viewBox="0 0 1.193 1.193"><defs><radialGradient id="id0" gradientUnits="userSpaceOnUse" cx=".565" cy=".573" r=".173" fx=".565" fy=".573"><stop offset="0" style="stop-color:white"/><stop offset=".129" style="stop-color:#e5e5e1"/><stop offset=".29" style="stop-color:#ccc8c8"/><stop offset=".439" style="stop-color:#b2b4b4"/><stop offset=".749" style="stop-color:#464d43"/><stop offset="1" style="stop-color:black"/></radialGradient><style>.str0{stroke:#000;stroke-width:.00363653}.fil2{fill:#000}</style></defs><g id="Layer_x0020_1"><path style="fill:gray" d="M0 0h1.193v1.193H0z"/><path style="fill:red" d="M.073.073h1.12v1.12H.073z"/><path class="fil2 str0" d="M.147.664.14.633.147.602h.455V.147L.633.141l.031.006v.455h.455l.004.031-.004.031H.664v.455l-.03.005-.032-.005V.664z"/><circle class="fil2 str0" cx=".389" cy=".385" r=".049"/><path class="fil2 str0" d="M.334.972.308.957.294.932.592.633.294.334.311.309.334.294l.299.298.299-.298.025.015.015.025-.298.299.298.299-.014.026-.026.014L.633.674z"/><circle class="fil2 str0" cx=".636" cy=".288" r=".049"/><circle cx=".633" cy=".627" r=".339" style="fill:url(#id0)"/><circle class="fil2 str0" cx=".868" cy=".399" r=".049"/><circle class="fil2 str0" cx=".397" cy=".868" r=".049"/><circle class="fil2 str0" cx=".868" cy=".868" r=".049"/><circle cx=".573" cy=".584" r=".046" style="fill:#fff"/></g></svg>