<svg xmlns="http://www.w3.org/2000/svg" xml:space="preserve" width="25mm" height="25mm" style="shape-rendering:geometricPrecision;text-rendering:geometricPrecision;image-rendering:optimizeQuality;fill-rule:evenodd;clip-rule:evenodd" viewBox="0 0 1.29 1.29"><path style="fill:gray" d="M0 0h1.29v1.29H0z"/><path style="fill:#c6c6c6" d="M.079.079H1.29V1.29H.079z"/><path d="M1.105.807v.144c0 .086-.067.111-.155.111H.412c-.085 0-.114-.051-.114-.102V.349C.296.303.33.258.402.26l.626-.002v.027c.003.103-.01.133-.092.136L.546.418.544.58l.407.001c.085 0 .151.02.153.099v.127zM.54.904h.276c.03 0 .044-.015.044-.032V.77C.861.752.846.74.817.74H.541v.164z" style="fill:teal"/></svg>