<svg xmlns="http://www.w3.org/2000/svg" xml:space="preserve" width="25mm" height="25mm" style="shape-rendering:geometricPrecision;text-rendering:geometricPrecision;image-rendering:optimizeQuality;fill-rule:evenodd;clip-rule:evenodd" viewBox="0 0 1.745 1.745"><defs><style>.fil0{fill:gray}</style></defs><g id="Layer_x0020_1"><path class="fil0" d="M0 0h1.745v1.745H0z"/><path style="fill:#c6c6c6" d="M.107.107h1.638v1.638H.107z"/><path class="fil0" d="M.777 1.25h.306c.04 0 .06-.019.06-.043v-.135c0-.023-.02-.04-.06-.04l-.306.001c-.043-.002-.072.009-.068.049v.12c-.001.035.021.05.068.048zm.695-.124v.195c0 .116-.09.15-.21.15H.534C.419 1.47.38 1.4.38 1.331v-.008l.002-.237c0-.076.016-.105.102-.102C.52.98.53.872.488.868.369.862.38.786.38.708V.506C.378.444.425.382.52.383l.627-.001h.22c.07.003.105.042.105.116v.245c0 .089-.011.12-.097.124-.04 0-.036.12-.003.12.104.004.1.08.1.087v.052zM.777.813h.306c.04 0 .06-.02.06-.043V.635c0-.024-.02-.04-.06-.04H.777C.734.593.705.604.709.644v.12C.708.8.73.815.777.814z"/></g></svg>