<svg xmlns="http://www.w3.org/2000/svg" xml:space="preserve" width="25mm" height="25mm" style="shape-rendering:geometricPrecision;text-rendering:geometricPrecision;image-rendering:optimizeQuality;fill-rule:evenodd;clip-rule:evenodd" viewBox="0 0 1.139 1.139"><path style="fill:gray" d="M0 0h1.139v1.139H0z"/><path style="fill:#c6c6c6" d="M.07.07h1.07v1.07H.07z"/><path d="M.96.72v.158C.96.94.903.944.825.944H.313C.238.944.248.908.248.863V.804h.459C.733.804.746.792.746.776v-.09C.746.671.733.66.706.66H.249V.236l.71-.002v.038C.963.357.939.377.874.378H.459V.52L.825.519C.886.52.96.516.96.585V.72z" style="fill:maroon"/></svg>