<svg xmlns="http://www.w3.org/2000/svg" xml:space="preserve" width="25mm" height="25mm" style="shape-rendering:geometricPrecision;text-rendering:geometricPrecision;image-rendering:optimizeQuality;fill-rule:evenodd;clip-rule:evenodd" viewBox="0 0 1.117 1.117"><defs><linearGradient id="id0" gradientUnits="userSpaceOnUse" x1=".314" y1=".367" x2=".594" y2=".417"><stop offset="0" style="stop-color:#e70030"/><stop offset=".388" style="stop-color:#ff4848"/><stop offset=".62" style="stop-color:#ff2f2f"/><stop offset=".788" style="stop-color:#ff1c1c"/><stop offset=".969" style="stop-color:#c01515"/><stop offset="1" style="stop-color:#a10d0d"/></linearGradient><style>.fil4{fill:#000}</style></defs><g id="Layer_x0020_1"><path style="fill:#ccc" d="M0 0h1.117v1.117H0z"/><path style="fill:#fff" d="M0 0h1.117L.72.72 0 1.117z"/><path style="fill:gray" d="M1.117 0v1.117H0z"/><path style="fill:#c6c6c6" d="M.136.136h.846v.846H.136z"/><path class="fil4" style="stroke:#000;stroke-width:.00340562" d="M.582.513h.065v.235H.582z"/><rect class="fil4" x=".43" y=".702" width=".294" height=".119" rx=".037" ry=".037"/><rect class="fil4" x=".301" y=".779" width=".554" height=".143" rx=".04" ry=".04"/><path d="M.653.202v.379C.59.431.328.571.254.281c0 0 .085.026.18-.02C.53.216.6.23.655.202z" style="fill:url(#id0)"/></g></svg>