<svg xmlns="http://www.w3.org/2000/svg" xml:space="preserve" width="25mm" height="25mm" style="shape-rendering:geometricPrecision;text-rendering:geometricPrecision;image-rendering:optimizeQuality;fill-rule:evenodd;clip-rule:evenodd" viewBox="0 0 1.066 1.066"><defs><radialGradient id="id0" gradientUnits="userSpaceOnUse" cx=".505" cy=".512" r=".155" fx=".505" fy=".512"><stop offset="0" style="stop-color:white"/><stop offset=".129" style="stop-color:#e5e5e1"/><stop offset=".29" style="stop-color:#ccc8c8"/><stop offset=".439" style="stop-color:#b2b4b4"/><stop offset=".749" style="stop-color:#464d43"/><stop offset="1" style="stop-color:black"/></radialGradient><style>.str0{stroke:#000;stroke-width:.00324773}.fil2{fill:#000}</style></defs><g id="Layer_x0020_1"><path style="fill:gray" d="M0 0h1.066v1.066H0z"/><path style="fill:#c6c6c6" d="M.065.065h1v1h-1z"/><path class="fil2 str0" d="M.132.593.125.565.132.538h.406V.132L.565.126l.028.006v.406h.406l.004.027-.004.028H.593v.406l-.026.005L.538.999V.593z"/><circle class="fil2 str0" cx=".347" cy=".344" r=".044"/><path class="fil2 str0" d="M.299.868.275.855.262.832.529.565.262.299.277.276.299.262l.266.267.267-.267.023.014.013.023-.266.266.266.267-.012.024-.024.012L.565.602z"/><circle class="fil2 str0" cx=".568" cy=".257" r=".044"/><circle cx=".565" cy=".56" r=".303" style="fill:url(#id0)"/><circle class="fil2 str0" cx=".775" cy=".356" r=".044"/><circle class="fil2 str0" cx=".354" cy=".775" r=".044"/><circle class="fil2 str0" cx=".775" cy=".775" r=".044"/><circle cx=".512" cy=".522" r=".041" style="fill:#fff"/></g></svg>