<svg xmlns="http://www.w3.org/2000/svg" xml:space="preserve" width="25mm" height="25mm" style="shape-rendering:geometricPrecision;text-rendering:geometricPrecision;image-rendering:optimizeQuality;fill-rule:evenodd;clip-rule:evenodd" viewBox="0 0 0.928 0.928"><path style="fill:gray" d="M0 0h.928v.928H0z"/><path style="fill:#c6c6c6" d="M.057.057h.872v.872H.057z"/><path d="M.782.59v.117c0 .037-.05.066-.111.066H.254C.193.773.202.743.202.707V.66h.373C.596.66.613.65.613.637V.563C.613.551.596.54.575.54h-.2V.426h.2C.596.425.613.414.613.401V.33C.613.316.596.306.575.306H.202V.259C.202.222.188.192.249.192h.422c.06 0 .111.03.111.067v.114C.784.403.776.418.758.426.733.436.725.454.725.466V.5c0 .024.01.033.032.044.021.01.025.025.025.046z" style="fill:red"/></svg>