<svg xmlns="http://www.w3.org/2000/svg" xml:space="preserve" width="25mm" height="25mm" style="shape-rendering:geometricPrecision;text-rendering:geometricPrecision;image-rendering:optimizeQuality;fill-rule:evenodd;clip-rule:evenodd" viewBox="0 0 1.712 1.712"><defs><radialGradient id="id0" gradientUnits="userSpaceOnUse" cx=".631" cy=".677" r=".678" fx=".631" fy=".677"><stop offset="0" style="stop-color:white"/><stop offset=".302" style="stop-color:#f3f516"/><stop offset=".588" style="stop-color:#fcce00"/><stop offset="1" style="stop-color:#ff9e67"/></radialGradient><style>.fil7{fill:#000}.fil0{fill:gray}</style></defs><g id="Layer_x0020_1"><g id="_280013496"><path id="_280272344" class="fil0" d="M0 0h1.712v1.712H0z"/><path id="_280270160" style="fill:#fff" d="M.055.055h1.601l-.683.68-.918.921z"/><path id="_280270088" class="fil0" d="M1.667.045v1.622H.045z"/><path id="_280270016" style="fill:#c6c6c6" d="M.203.203h1.306v1.306H.203z"/><g><circle id="_281586192" cx=".856" cy=".856" r=".514" style="fill:none"/><circle id="_281586120" cx=".86" cy=".846" r=".498" style="fill:url(#id0)"/><path id="_281586048" d="M.856.31a.544.544 0 0 1 .546.546.544.544 0 0 1-.546.546.544.544 0 0 1-.545-.546.544.544 0 0 1 .545-.545zm0 .063a.482.482 0 0 0-.483.483.482.482 0 0 0 .483.484.482.482 0 0 0 .484-.484.482.482 0 0 0-.484-.483z" style="fill:#000;fill-rule:nonzero"/><path id="_281585976" d="M1.11 1.117a.135.135 0 0 0 .019-.069c0-.101-.12-.184-.268-.184-.148 0-.268.083-.268.184 0 .024.006.046.018.066C.63 1.02.735.947.86.947c.126 0 .23.074.25.17z" style="fill:#000"/><path id="_281585904" class="fil7" d="m.74.541.03.03C.77.573.77.576.769.578L.697.649.768.72C.771.723.771.726.77.728l-.03.03C.74.757.735.757.733.755L.662.685.59.756C.588.758.585.76.584.757l-.03-.03C.552.726.553.723.555.721L.626.649.556.58C.552.575.551.572.553.57l.03-.03C.585.54.588.542.59.544l.07.071.072-.071C.735.54.738.54.74.54z"/><path id="_281585832" class="fil7" d="m1.125.541.03.03c.002.002 0 .005-.001.007l-.072.071.071.071c.003.003.003.006.002.008l-.03.03c-.001 0-.005 0-.007-.002L1.047.685.976.756C.973.758.97.76.969.757l-.03-.03C.937.726.938.723.94.721l.072-.072L.94.58C.938.575.938.572.939.57l.03-.03C.97.54.974.542.976.544l.071.071.071-.071C1.121.54 1.124.54 1.125.54z"/></g></g></g></svg>