<svg xmlns="http://www.w3.org/2000/svg" xml:space="preserve" width="25mm" height="25mm" style="shape-rendering:geometricPrecision;text-rendering:geometricPrecision;image-rendering:optimizeQuality;fill-rule:evenodd;clip-rule:evenodd" viewBox="0 0 2.083 2.083"><defs><radialGradient id="id0" gradientUnits="userSpaceOnUse" cx=".884" cy=".973" r=".825" fx=".884" fy=".973"><stop offset="0" style="stop-color:white"/><stop offset=".302" style="stop-color:#f3f516"/><stop offset=".588" style="stop-color:#fcce00"/><stop offset="1" style="stop-color:#ff9e67"/></radialGradient><style>.fil6{fill:#000}.fil0{fill:gray}</style></defs><g id="Layer_x0020_1"><g id="_280012488"><path id="_280272824" class="fil0" d="M0 0h2.083v2.083H0z"/><path id="_281586816" class="fil0" d="M.055.055h1.973v1.973H.055z"/><path id="_281586744" style="fill:#c6c6c6" d="M.231.231h1.69v1.69H.231z"/><circle id="_281586672" cx="1.141" cy="1.178" r=".587" style="fill:none"/><circle id="_281586600" cx="1.145" cy="1.166" r=".568" style="fill:url(#id0)"/><path id="_281586528" d="M1.141.555a.62.62 0 0 1 .623.623.62.62 0 0 1-.623.622.62.62 0 0 1-.622-.622.62.62 0 0 1 .622-.623zm0 .07v.001a.55.55 0 0 0-.551.552.55.55 0 0 0 .551.551.55.55 0 0 0 .552-.551.55.55 0 0 0-.552-.552z" style="fill:#000;fill-rule:nonzero"/><path id="_281586456" d="M1.381 1.324c.012.014.019.03.019.046 0 .068-.113.123-.253.123S.893 1.438.893 1.37c0-.016.007-.032.02-.046.037.044.128.076.234.076.105 0 .196-.032.234-.076z" style="fill:#000"/><circle id="_281586384" class="fil6" cx=".947" cy="1.039" r=".105"/><circle id="_281586312" class="fil6" cx="1.318" cy="1.039" r=".105"/></g></g></svg>